<?xml version="1.0" encoding="utf-8"?>
<!-- Generator: Adobe Illustrator 23.0.1, SVG Export Plug-In . SVG Version: 6.00 Build 0)  -->
<svg version="1.1"
	 id="svg2" inkscape:export-filename="C:\Users\Brian\Code\GitHub\Learn-Project\src\image\bg.png" inkscape:export-xdpi="90.172897" inkscape:export-ydpi="90.172897" inkscape:version="0.48.2 r9819" sodipodi:docname="bg.svg" xmlns:cc="http://creativecommons.org/ns#" xmlns:dc="http://purl.org/dc/elements/1.1/" xmlns:inkscape="http://www.inkscape.org/namespaces/inkscape" xmlns:rdf="http://www.w3.org/1999/02/22-rdf-syntax-ns#" xmlns:sodipodi="http://sodipodi.sourceforge.net/DTD/sodipodi-0.dtd" xmlns:svg="http://www.w3.org/2000/svg"
	 xmlns="http://www.w3.org/2000/svg" xmlns:xlink="http://www.w3.org/1999/xlink" x="0px" y="0px" viewBox="0 0 407.2 151.6"
	 style="enable-background:new 0 0 407.2 151.6;" xml:space="preserve">
<style type="text/css">
	.st0{fill:url(#rect4033_1_);}
	.st1{enable-background:new    ;}
	.st2{fill:#808080;}
	.st3{font-family:'SourceHanSansSC-Normal-GBpc-EUC-H';}
	.st4{font-size:14px;}
</style>
<sodipodi:namedview  bordercolor="#666666" borderopacity="1.0" fit-margin-bottom="15" fit-margin-left="10" fit-margin-right="10" fit-margin-top="10" id="base" inkscape:current-layer="layer1" inkscape:cx="130.55786" inkscape:cy="88.677071" inkscape:document-units="px" inkscape:pageopacity="0.0" inkscape:pageshadow="2" inkscape:window-height="706" inkscape:window-maximized="1" inkscape:window-width="1366" inkscape:window-x="-8" inkscape:window-y="-8" inkscape:zoom="2" pagecolor="#ffffff" showgrid="false">
	</sodipodi:namedview>
<g id="layer1" transform="translate(-138.90231,-359.29755)" inkscape:groupmode="layer" inkscape:label="Layer 1">
	
		<radialGradient id="rect4033_1_" cx="964.2202" cy="5614.9897" r="270.6148" gradientTransform="matrix(0.2085 0 0 6.263317e-02 16.6057 122.6151)" gradientUnits="userSpaceOnUse">
		<stop  offset="0" style="stop-color:#FFFFFF"/>
		<stop  offset="1" style="stop-color:#FFFFFF;stop-opacity:0"/>
	</radialGradient>
	<path id="rect4033" class="st0" d="M163.5,369.3h358.1c8.1,0,14.6,6.5,14.6,14.6v97.4c0,8.1-6.5,14.6-14.6,14.6H163.5
		c-8.1,0-14.6-6.5-14.6-14.6v-97.4C148.9,375.8,155.4,369.3,163.5,369.3z"/>
	<g id="g4019" transform="translate(0.32764383,0)">
		<g>
			<g class="st1">
				<path d="M281.6,404.1h3.8v26.4h12.9v3.2h-16.6V404.1z"/>
				<path d="M301.5,422.8c0-7.1,4.8-11.5,9.8-11.5c5.6,0,8.7,4,8.7,10.3c0,0.8-0.1,1.6-0.2,2.1h-14.7c0.3,4.6,3.1,7.6,7.3,7.6
					c2.1,0,3.8-0.7,5.4-1.7l1.3,2.4c-1.9,1.3-4.2,2.3-7.2,2.3C306.2,434.2,301.5,429.9,301.5,422.8z M316.8,421c0-4.4-2-6.8-5.4-6.8
					c-3.1,0-5.8,2.5-6.3,6.8H316.8z"/>
				<path d="M324.1,428c0-4.8,4.1-7.1,13.4-8.2c0-2.8-0.9-5.5-4.5-5.5c-2.5,0-4.8,1.2-6.5,2.3l-1.4-2.5c2-1.3,5.1-2.9,8.6-2.9
					c5.3,0,7.6,3.5,7.6,9v13.4h-3.1l-0.3-2.6h-0.1c-2.1,1.7-4.5,3.2-7.2,3.2C326.9,434.2,324.1,431.9,324.1,428z M337.6,428.3v-6.1
					c-7.3,0.9-9.8,2.7-9.8,5.5c0,2.5,1.7,3.5,3.8,3.5C333.7,431.2,335.5,430.2,337.6,428.3z"/>
				<path d="M348.2,411.8h3.1l0.3,4h0.1c1.5-2.8,3.8-4.5,6.2-4.5c1,0,1.6,0.1,2.3,0.4l-0.7,3.2c-0.8-0.2-1.2-0.4-2.1-0.4
					c-1.8,0-4.1,1.3-5.5,5v14h-3.7V411.8z"/>
				<path d="M363.8,411.8h3.1l0.3,3.2h0.1c2.1-2.1,4.3-3.7,7.3-3.7c4.6,0,6.7,3,6.7,8.6v13.9h-3.7v-13.4c0-4.1-1.2-5.8-4.1-5.8
					c-2.2,0-3.8,1.1-6,3.4v15.8h-3.7V411.8z"/>
				<path d="M397.7,404.1h3.8v12.4h13.7v-12.4h3.8v29.5h-3.8v-13.9h-13.7v13.9h-3.8V404.1z"/>
				<path d="M425.1,422.8c0-7.1,4.8-11.5,9.8-11.5c5.6,0,8.7,4,8.7,10.3c0,0.8-0.1,1.6-0.2,2.1h-14.7c0.3,4.6,3.1,7.6,7.3,7.6
					c2.1,0,3.8-0.7,5.4-1.7l1.3,2.4c-1.9,1.3-4.2,2.3-7.2,2.3C429.8,434.2,425.1,429.9,425.1,422.8z M440.4,421c0-4.4-2-6.8-5.4-6.8
					c-3.1,0-5.8,2.5-6.3,6.8H440.4z"/>
				<path d="M449.1,429.3v-27.7h3.7v27.9c0,1.1,0.5,1.6,1,1.6c0.2,0,0.4,0,0.8-0.1l0.5,2.8c-0.5,0.2-1.2,0.3-2.1,0.3
					C450.2,434.2,449.1,432.4,449.1,429.3z"/>
				<path d="M460.5,411.8h3.1l0.3,2.5h0.1c2-1.6,4.4-3.1,7-3.1c5.7,0,8.7,4.4,8.7,11.1c0,7.5-4.5,11.8-9.5,11.8
					c-2,0-4.1-0.9-6.1-2.5l0.1,3.8v7.4h-3.7V411.8z M475.8,422.4c0-4.8-1.6-8.1-5.8-8.1c-1.9,0-3.7,1-5.8,3v11.5
					c2,1.7,3.9,2.3,5.3,2.3C473.2,431.1,475.8,427.8,475.8,422.4z"/>
				<path d="M483.9,422.8c0-7.1,4.8-11.5,9.8-11.5c5.6,0,8.7,4,8.7,10.3c0,0.8-0.1,1.6-0.2,2.1h-14.7c0.3,4.6,3.1,7.6,7.3,7.6
					c2.1,0,3.8-0.7,5.4-1.7l1.3,2.4c-1.9,1.3-4.2,2.3-7.2,2.3C488.5,434.2,483.9,429.9,483.9,422.8z M499.2,421c0-4.4-2-6.8-5.4-6.8
					c-3.1,0-5.8,2.5-6.3,6.8H499.2z"/>
				<path d="M507.8,411.8h3.1l0.3,4h0.1c1.5-2.8,3.8-4.5,6.2-4.5c1,0,1.6,0.1,2.3,0.4l-0.7,3.2c-0.8-0.2-1.2-0.4-2.1-0.4
					c-1.8,0-4.1,1.3-5.5,5v14h-3.7V411.8z"/>
			</g>
		</g>
		<text transform="matrix(1 0 0 1 280.4308 466.2675)" class="st2 st3 st4">致力于帮助你及时了解网络学堂的信息</text>
	</g>
</g>
<image style="overflow:visible;enable-background:new    ;" width="512" height="512" xlink:href="512.png"  transform="matrix(0.2364 0 0 0.2364 18.4235 5.1887)">
</image>
</svg>
